<svg fill="none" height="32" width="33" xmlns="http://www.w3.org/2000/svg"><clipPath id="a"><path d="M.5 0h32v32H.5z"/></clipPath><g clip-path="url(#a)"><path clip-rule="evenodd" d="M16.5 0C7.663 0 .5 7.163.5 16s7.163 16 16 16c8.838 0 16-7.163 16-16s-7.162-16-16-16z" fill="#000" fill-rule="evenodd"/><g fill="#fff"><path d="m8.4 16.986-.774-3.597h-.022l-.773 3.597zM8.611 12l2.118 8h-1.68l-.37-1.692H6.55L6.18 20H4.5l2.118-8z"/><path d="m14.625 16.986-.773-3.597h-.022l-.773 3.597zM14.838 12l2.118 8h-1.681l-.37-1.692h-2.129L12.406 20h-1.68l2.118-8zm4.287 3.619v-2.431h.673c.403 0 .69.104.863.313.171.21.257.516.257.92 0 .41-.1.713-.302.907-.194.194-.452.291-.773.291zM17.512 12v8h1.613v-3.193h.863c.381 0 .729-.049 1.042-.146s.58-.243.796-.437c.224-.194.396-.444.515-.75.127-.307.19-.665.19-1.076 0-.299-.037-.59-.111-.874-.075-.292-.198-.55-.37-.773s-.4-.404-.684-.538c-.276-.142-.62-.213-1.03-.213zm5.81 8h4.47v-1.322h-2.856V12h-1.614z"/></g></g></svg>