<svg fill="none" height="32" width="32" xmlns="http://www.w3.org/2000/svg"><circle cx="16" cy="16" fill="#f60" r="16"/><path d="M5.44 18.812v-2.409h.695c.18 0 .344.019.493.056.15.038.277.105.381.202.112.09.198.213.258.37.067.15.1.34.1.571 0 .463-.119.78-.358.953s-.553.257-.941.257zm0-3.53v-2.094h.583c.404 0 .699.078.885.235.187.157.28.426.28.807 0 .38-.104.653-.313.818-.202.157-.527.235-.975.235zM3.828 12v8H6.55c.47 0 .863-.064 1.176-.19a2.05 2.05 0 0 0 .773-.505 1.83 1.83 0 0 0 .426-.75c.082-.284.123-.583.123-.897 0-.538-.13-.967-.392-1.288-.261-.321-.616-.512-1.064-.572v-.022c.403-.112.706-.321.907-.627.202-.314.303-.688.303-1.121 0-.38-.056-.702-.168-.964a1.549 1.549 0 0 0-.47-.627 1.872 1.872 0 0 0-.729-.336A3.839 3.839 0 0 0 6.527 12zm9.564 4.986-.773-3.597h-.022l-.774 3.597zM13.605 12l2.117 8h-1.68l-.37-1.692h-2.129L11.173 20h-1.68l2.117-8zm4.287 6.812v-2.409h.695c.18 0 .344.019.493.056a.86.86 0 0 1 .381.202c.112.09.198.213.258.37.067.15.1.34.1.571 0 .463-.119.78-.358.953-.239.171-.553.257-.941.257zm0-3.53v-2.094h.583c.403 0 .698.078.885.235.187.157.28.426.28.807 0 .38-.104.653-.313.818-.202.157-.527.235-.975.235zM16.28 12v8h2.723c.47 0 .862-.064 1.176-.19.321-.127.58-.295.773-.505a1.83 1.83 0 0 0 .426-.75c.082-.284.123-.583.123-.897 0-.538-.13-.967-.392-1.288-.261-.321-.616-.512-1.064-.572v-.022c.403-.112.706-.321.907-.627.202-.314.303-.688.303-1.121 0-.38-.056-.702-.168-.964a1.548 1.548 0 0 0-.47-.627 1.871 1.871 0 0 0-.73-.336A3.838 3.838 0 0 0 18.98 12zm9.564 4.986-.773-3.597h-.023l-.773 3.597zM26.057 12l2.117 8h-1.68l-.37-1.692h-2.129L23.625 20h-1.68l2.117-8z" fill="#fff"/></svg>