<svg fill="none" height="36" width="36" xmlns="http://www.w3.org/2000/svg"><clipPath id="a"><path d="M8 7h20v21.27H8z"/></clipPath><path clip-rule="evenodd" d="M0 18C0 8.059 8.059 0 18 0s18 8.059 18 18-8.059 18-18 18S0 27.941 0 18z" fill="#ffe5f7" fill-rule="evenodd"/><g clip-path="url(#a)" fill="#e6007a"><path d="M18 11.461c2.117 0 3.835-.999 3.835-2.23C21.835 7.999 20.117 7 17.999 7s-3.835.999-3.835 2.23c0 1.232 1.717 2.231 3.835 2.231zm0 16.807c2.117 0 3.835-.998 3.835-2.23s-1.718-2.23-3.836-2.23-3.835.998-3.835 2.23 1.717 2.23 3.835 2.23zm-5.345-13.719c1.059-1.834 1.052-3.821-.016-4.438-1.067-.616-2.791.371-3.85 2.206-1.06 1.834-1.053 3.82.015 4.437s2.791-.37 3.85-2.205zm14.553 8.402c1.06-1.834 1.053-3.82-.014-4.436-1.066-.616-2.79.372-3.849 2.206-1.06 1.834-1.053 3.82.014 4.437 1.067.615 2.79-.372 3.85-2.207zM12.64 25.157c1.067-.616 1.074-2.603.015-4.437-1.06-1.835-2.783-2.822-3.85-2.206-1.068.617-1.075 2.603-.016 4.438 1.06 1.834 2.783 2.821 3.85 2.205zm14.555-8.402c1.067-.616 1.073-2.603.014-4.437s-2.782-2.822-3.85-2.206c-1.066.616-1.072 2.602-.013 4.437 1.059 1.834 2.782 2.822 3.85 2.206z"/></g></svg>