<svg fill="none" height="48" width="48" xmlns="http://www.w3.org/2000/svg"><linearGradient id="a" gradientUnits="userSpaceOnUse" x1="38.316" x2="5.127" y1="39.814" y2="6.625"><stop offset=".008" stop-color="#8656ef"/><stop offset=".97" stop-color="#1aa3ff"/></linearGradient><g clip-rule="evenodd" fill-rule="evenodd"><path d="M0 24C0 10.745 10.745 0 24 0s24 10.745 24 24-10.745 24-24 24S0 37.255 0 24z" fill="#f5f5f5"/><path d="M8.207 22.989c.495-7.89 6.846-14.261 14.734-14.779a15.75 15.75 0 0 1 10.945 3.448c.288.231.7.22.975-.025l1.163-1.037a.757.757 0 0 0-.019-1.148 18.794 18.794 0 0 0-12.817-4.304c-9.66.407-17.52 8.177-18.034 17.833A18.78 18.78 0 0 0 8.181 34.28a.756.756 0 0 0 1.135.146l1.162-1.036a.753.753 0 0 0 .137-.963 15.741 15.741 0 0 1-2.408-9.44zm7.276 2.112-.87 1.173a.612.612 0 0 0 .547.889h2.846c.9 3.72 3.49 6.257 6.963 6.204 2.465 0 4.323-1.225 5.564-3.666a.612.612 0 0 0-.3-.834l-1.357-.606a.61.61 0 0 0-.796.285c-.64 1.3-1.705 2.129-3.111 2.129-1.273 0-2.295-.624-3.077-1.884a6.902 6.902 0 0 1-.735-1.628h3.645c.23 0 .442-.13.546-.336l.87-1.174a.612.612 0 0 0-.547-.888h-4.924a13.858 13.858 0 0 1-.004-1.55h4.059c.23 0 .442-.13.546-.336l.87-1.174a.612.612 0 0 0-.547-.889h-4.518c.66-2.154 2.04-3.566 3.816-3.538 1.352 0 2.403.74 3.076 1.953a.606.606 0 0 0 .776.25l1.364-.602a.611.611 0 0 0 .292-.85c-1.259-2.275-3.095-3.418-5.508-3.418-2.202 0-3.966.876-5.306 2.614-.783 1.023-1.328 2.224-1.651 3.591H16.03c-.23 0-.442.13-.547.337l-.87 1.173a.612.612 0 0 0 .547.889h2.524a16.155 16.155 0 0 0-.01 1.55H16.03c-.23 0-.443.13-.547.336zm23.2-11.529a.756.756 0 0 1 1.136.147 18.78 18.78 0 0 1 3.026 11.303c-.512 9.655-8.372 17.426-18.032 17.833a18.794 18.794 0 0 1-12.819-4.304.757.757 0 0 1-.018-1.147l1.162-1.038a.755.755 0 0 1 .975-.025 15.75 15.75 0 0 0 10.945 3.448c7.888-.517 14.24-6.889 14.734-14.778a15.74 15.74 0 0 0-2.407-9.439.753.753 0 0 1 .137-.963z" fill="url(#a)"/></g></svg>