<svg height="72" width="72" xmlns="http://www.w3.org/2000/svg"><path d="M43.98 62.836V9.164c11.554 3.452 20 14.176 20 26.836s-8.446 23.386-20 26.836M35.98 0v30.342l-4.57-4.57-.584-11.406L35.592.02a35.827 35.827 0 0 0-8.834 1.218l-2.306 6.934-6.536-3.278a36.107 36.107 0 0 0-7.104 5.39l12.106 6.066.354 6.942-6.94-.356-6.068-12.104a36.126 36.126 0 0 0-5.39 7.104l3.28 6.538-6.938 2.304A35.921 35.921 0 0 0 0 35.612l14.348-4.766 11.406.582L30.324 36l-4.57 4.572-11.406.582L0 36.388a35.921 35.921 0 0 0 1.216 8.834l6.938 2.304-3.28 6.538a36.126 36.126 0 0 0 5.39 7.104l6.068-12.104 6.94-.356-.354 6.94-12.106 6.068a36.263 36.263 0 0 0 7.104 5.39l6.536-3.278 2.306 6.934a35.922 35.922 0 0 0 8.834 1.218l-4.766-14.346.584-11.406 4.57-4.57V72c19.882 0 36-16.118 36-36s-16.118-36-36-36" fill="rgba(255,0,176,1)" fill-rule="evenodd"/></svg>