<svg height="32" width="32" xmlns="http://www.w3.org/2000/svg"><path d="M19.547 27.926V4.074c5.137 1.531 8.89 6.301 8.89 11.926s-3.753 10.395-8.89 11.926M15.992 0v13.484l-2.031-2.03-.262-5.067L15.82.007c-1.328.016-2.648.2-3.93.544l-1.023 3.082-2.906-1.457A16.083 16.083 0 0 0 4.805 4.57l5.383 2.696.156 3.086-3.086-.157-2.695-5.382a16.108 16.108 0 0 0-2.395 3.16l1.457 2.906-3.086 1.023A16.04 16.04 0 0 0 0 15.828l6.375-2.117 5.07.258L13.477 16l-2.032 2.031-5.07.258L0 16.172c.016 1.328.2 2.644.54 3.926l3.085 1.023-1.457 2.906a16.108 16.108 0 0 0 2.395 3.16l2.695-5.382 3.086-.157-.156 3.086-5.383 2.696c.949.925 2.011 1.73 3.156 2.394l2.906-1.457 1.024 3.082c1.28.344 2.601.524 3.93.543l-2.122-6.379.262-5.066 2.031-2.031V32c8.836 0 16-7.164 16-16s-7.164-16-16-16" fill="#ff00b0" fill-rule="evenodd"/></svg>