<svg fill="none" height="32" width="32" xmlns="http://www.w3.org/2000/svg"><path clip-rule="evenodd" d="M16 0C7.163 0 0 7.163 0 16s7.163 16 16 16c8.838 0 16-7.163 16-16S24.838 0 16 0z" fill="#34a853" fill-rule="evenodd"/><path d="M7.974 14.447h1.494c0-.787-.187-1.39-.563-1.808-.375-.426-.988-.639-1.84-.639-.498 0-.913.083-1.245.249s-.599.415-.801.747c-.202.325-.347.733-.433 1.223a10.75 10.75 0 0 0-.12 1.71c0 .672.03 1.264.087 1.776.058.505.17.931.336 1.277.173.347.408.603.704.769.303.166.692.249 1.169.249.368 0 .682-.061.942-.184.267-.13.494-.346.682-.65h.021v.715h1.148v-4.168H7.032v1.148h1.029v.79c0 .21-.033.393-.098.552a1.194 1.194 0 0 1-.249.379.944.944 0 0 1-.314.227.77.77 0 0 1-.855-.13c-.137-.144-.245-.346-.324-.606-.073-.267-.123-.588-.152-.963s-.043-.794-.043-1.256c0-.967.083-1.66.249-2.079s.436-.628.812-.628a.62.62 0 0 1 .4.13.91.91 0 0 1 .282.314c.072.123.122.26.151.412.036.151.054.3.054.443zm3.98 1.569c0-.52.011-.96.033-1.32.029-.361.08-.657.151-.888.08-.231.188-.397.325-.498.145-.108.332-.162.563-.162.231 0 .415.054.552.162.144.1.253.267.325.498.08.23.13.527.151.888.03.36.044.8.044 1.32s-.015.964-.044 1.332c-.021.36-.072.657-.151.888-.072.223-.18.39-.325.497-.137.101-.321.152-.552.152-.23 0-.419-.05-.563-.152-.137-.108-.245-.274-.325-.498a4.16 4.16 0 0 1-.151-.887 23.229 23.229 0 0 1-.033-1.332zm-1.559 0c0 .592.026 1.133.076 1.624.058.49.177.913.357 1.267.188.353.455.624.802.812.346.187.811.281 1.396.281s1.05-.094 1.397-.281c.346-.188.61-.459.79-.812.188-.354.307-.776.357-1.267.058-.49.087-1.032.087-1.624 0-.584-.03-1.122-.087-1.613-.05-.498-.17-.923-.357-1.277a1.932 1.932 0 0 0-.79-.823c-.347-.202-.812-.303-1.397-.303s-1.05.101-1.396.303a2 2 0 0 0-.802.823c-.18.354-.299.78-.357 1.277a15.83 15.83 0 0 0-.076 1.613zm7.575 0c0-.52.01-.96.032-1.32.029-.361.08-.657.152-.888.08-.231.187-.397.324-.498.145-.108.332-.162.563-.162.231 0 .415.054.552.162.145.1.253.267.325.498.08.23.13.527.152.888.029.36.043.8.043 1.32s-.014.964-.043 1.332a3.41 3.41 0 0 1-.152.888c-.072.223-.18.39-.325.497-.137.101-.32.152-.552.152-.23 0-.418-.05-.563-.152-.137-.108-.245-.274-.324-.498a4.16 4.16 0 0 1-.152-.887 23.229 23.229 0 0 1-.032-1.332zm-1.56 0c0 .592.026 1.133.077 1.624.057.49.176.913.357 1.267.187.353.454.624.8.812.347.187.813.281 1.397.281s1.05-.094 1.397-.281c.346-.188.61-.459.79-.812.188-.354.307-.776.357-1.267.058-.49.087-1.032.087-1.624 0-.584-.029-1.122-.087-1.613-.05-.498-.17-.923-.357-1.277a1.932 1.932 0 0 0-.79-.823c-.346-.202-.812-.303-1.397-.303s-1.05.101-1.396.303a2 2 0 0 0-.801.823c-.18.354-.3.78-.357 1.277a15.83 15.83 0 0 0-.076 1.613zm9.61-1.569h1.494c0-.787-.188-1.39-.563-1.808-.375-.426-.989-.639-1.84-.639-.498 0-.913.083-1.245.249s-.6.415-.801.747c-.202.325-.347.733-.433 1.223a10.75 10.75 0 0 0-.12 1.71c0 .672.03 1.264.087 1.776.058.505.17.931.336 1.277.173.347.408.603.704.769.303.166.692.249 1.169.249.368 0 .682-.061.942-.184.267-.13.494-.346.682-.65h.021v.715h1.148v-4.168h-2.523v1.148h1.029v.79c0 .21-.033.393-.098.552a1.194 1.194 0 0 1-.249.379.944.944 0 0 1-.314.227.77.77 0 0 1-.855-.13c-.137-.144-.245-.346-.325-.606-.072-.267-.122-.588-.151-.963s-.043-.794-.043-1.256c0-.967.083-1.66.249-2.079s.436-.628.812-.628a.62.62 0 0 1 .4.13.91.91 0 0 1 .282.314c.072.123.122.26.151.412.036.151.054.3.054.443z" fill="#fff"/></svg>