<svg fill="none" height="36" width="36" xmlns="http://www.w3.org/2000/svg"><clipPath id="a"><path d="M7 8h22v19.193H7z"/></clipPath><path clip-rule="evenodd" d="M0 18C0 8.059 8.059 0 18 0s18 8.059 18 18-8.059 18-18 18S0 27.941 0 18z" fill="#fefefe" fill-rule="evenodd"/><g clip-path="url(#a)"><path d="M23.615 13.844c-.401-.23-.917-.23-1.375 0l-3.209 1.89-2.177 1.204-3.15 1.89c-.402.23-.918.23-1.376 0l-2.463-1.49a1.396 1.396 0 0 1-.688-1.203v-2.864c0-.458.23-.917.688-1.203l2.463-1.433c.401-.229.917-.229 1.375 0l2.464 1.49c.4.23.687.688.687 1.203v1.89l2.177-1.26V12.01c0-.458-.229-.916-.687-1.203L13.76 8.115c-.4-.23-.916-.23-1.375 0l-4.698 2.75A1.261 1.261 0 0 0 7 12.01v5.386c0 .458.23.917.687 1.203l4.641 2.693c.401.229.917.229 1.375 0l3.151-1.834 2.177-1.26 3.151-1.833c.401-.23.917-.23 1.375 0l2.464 1.432c.4.229.687.687.687 1.203v2.865c0 .458-.229.916-.687 1.203L23.615 24.5c-.402.23-.917.23-1.375 0l-2.464-1.432a1.397 1.397 0 0 1-.688-1.203V20.03l-2.177 1.26v1.891c0 .459.23.917.688 1.203l4.64 2.693c.402.23.917.23 1.376 0l4.64-2.693c.401-.229.688-.687.688-1.203V17.74c0-.459-.23-.917-.688-1.204z" fill="#8247e5"/></g></svg>