<svg fill="none" height="32" width="32" xmlns="http://www.w3.org/2000/svg"><circle cx="16" cy="16" fill="#000ad2" r="16"/><path d="M6.172 15.648V13.3h.65c.39 0 .667.101.833.303.166.202.25.498.25.888 0 .397-.098.69-.293.877-.188.187-.437.281-.747.281zm-1.559-3.496v7.729h1.56v-3.085h.833c.368 0 .703-.047 1.006-.141a2.05 2.05 0 0 0 .77-.422 1.81 1.81 0 0 0 .497-.726 2.7 2.7 0 0 0 .184-1.039c0-.289-.036-.57-.108-.844a2.049 2.049 0 0 0-.357-.747 1.767 1.767 0 0 0-.66-.52c-.268-.137-.6-.205-.997-.205zm7.248 6.581V13.3h.66c.297 0 .531.058.704.173.18.108.314.274.401.498.094.217.155.491.184.823.029.332.043.718.043 1.158 0 .527-.018.967-.054 1.321-.029.354-.094.639-.195.855-.093.217-.223.372-.39.466s-.385.14-.66.14zm-1.558-6.581v7.729h2.457c.52 0 .949-.08 1.288-.238.34-.159.61-.4.812-.726.202-.324.343-.736.422-1.234.087-.505.13-1.097.13-1.775 0-.57-.032-1.086-.097-1.548-.065-.462-.191-.855-.38-1.18a1.81 1.81 0 0 0-.768-.758c-.332-.18-.768-.27-1.31-.27zm7.699 6.581v-2.327h.671c.173 0 .332.018.476.054s.267.101.368.195a.818.818 0 0 1 .25.357c.064.144.097.329.097.552 0 .448-.116.754-.347.92-.23.166-.534.25-.909.25zm0-3.41V13.3h.563c.39 0 .675.076.855.227.18.152.27.412.27.78 0 .368-.1.631-.302.79-.195.152-.51.227-.942.227zm-1.559-3.171v7.729h2.63c.455 0 .834-.061 1.137-.184.31-.123.56-.285.747-.487.195-.21.332-.451.412-.726.079-.274.119-.563.119-.866 0-.52-.127-.934-.38-1.245-.252-.31-.595-.494-1.028-.552V15.8c.39-.109.682-.31.877-.607.195-.303.292-.664.292-1.082 0-.368-.054-.678-.162-.931a1.497 1.497 0 0 0-.455-.606 1.808 1.808 0 0 0-.703-.325 3.705 3.705 0 0 0-.877-.097zm9.317 2.608h1.559c0-.281-.022-.58-.065-.898a2.273 2.273 0 0 0-.292-.898 1.819 1.819 0 0 0-.726-.693c-.317-.18-.754-.271-1.31-.271-.584 0-1.05.101-1.396.303a2 2 0 0 0-.801.823c-.18.354-.3.78-.357 1.277-.05.491-.076 1.029-.076 1.613 0 .592.025 1.133.076 1.624.058.49.177.913.357 1.267.188.353.455.624.801.812.346.187.812.281 1.396.281.513 0 .928-.08 1.246-.238.324-.159.573-.379.746-.66.18-.282.304-.61.369-.986.064-.375.097-.772.097-1.19h-1.559c0 .418-.025.757-.076 1.017-.05.253-.119.451-.205.596a.684.684 0 0 1-.314.281 1.071 1.071 0 0 1-.38.065.98.98 0 0 1-.443-.097c-.123-.073-.227-.206-.314-.401-.08-.202-.14-.483-.184-.844a14.899 14.899 0 0 1-.054-1.418c0-.549.014-1.01.043-1.386.029-.383.08-.69.152-.92.072-.238.17-.408.292-.51a.735.735 0 0 1 .487-.161c.354 0 .595.13.725.39.137.252.206.66.206 1.223z" fill="#fff"/></svg>