<svg fill="none" height="32" width="32" xmlns="http://www.w3.org/2000/svg"><circle cx="16" cy="16" fill="#000ad2" r="16"/><path d="M9.324 17.749c.141-.192.255-.429.34-.712.085-.284.127-.627.127-1.031a3.97 3.97 0 0 0-.117-.967 2.42 2.42 0 0 0-.35-.829 1.742 1.742 0 0 0-.638-.584c-.262-.149-.58-.223-.956-.223s-.695.074-.957.223a1.742 1.742 0 0 0-.637.584 2.56 2.56 0 0 0-.361.829 4.35 4.35 0 0 0 0 1.902c.077.297.198.567.36.808.164.24.376.435.638.584.262.142.581.212.957.212.177 0 .311-.007.403-.02a.896.896 0 0 0 .266-.086l-.712-.648.776-.829zm.244 1.753c-.503.29-1.116.436-1.838.436-.581 0-1.105-.1-1.573-.298a3.43 3.43 0 0 1-1.169-.84 3.703 3.703 0 0 1-.733-1.243A4.628 4.628 0 0 1 4 16.006c0-.567.085-1.091.255-1.573a3.78 3.78 0 0 1 .733-1.275 3.365 3.365 0 0 1 1.17-.85A3.87 3.87 0 0 1 7.73 12c.588 0 1.112.103 1.572.308.46.206.85.489 1.17.85.318.361.562.786.732 1.275.17.482.255 1.006.255 1.573 0 .552-.085 1.066-.255 1.54s-.414.893-.733 1.255l.946.86-.776.808zm8.026-1.753a2.3 2.3 0 0 0 .34-.712c.085-.284.127-.627.127-1.031a3.97 3.97 0 0 0-.116-.967 2.42 2.42 0 0 0-.351-.829 1.741 1.741 0 0 0-.638-.584c-.262-.149-.58-.223-.956-.223s-.694.074-.956.223a1.742 1.742 0 0 0-.638.584 2.582 2.582 0 0 0-.361.829 4.352 4.352 0 0 0 0 1.902c.078.297.198.567.361.808.163.24.376.435.638.584.262.142.58.212.956.212a3.1 3.1 0 0 0 .404-.02.896.896 0 0 0 .265-.086l-.712-.648.776-.829zm.244 1.753c-.503.29-1.115.436-1.838.436-.58 0-1.105-.1-1.573-.298a3.43 3.43 0 0 1-1.168-.84 3.706 3.706 0 0 1-.734-1.243 4.628 4.628 0 0 1-.255-1.551c0-.567.085-1.091.255-1.573.17-.489.415-.914.733-1.275a3.365 3.365 0 0 1 1.17-.85A3.87 3.87 0 0 1 16 12c.588 0 1.112.103 1.573.308.46.206.85.489 1.169.85.318.361.563.786.733 1.275.17.482.255 1.006.255 1.573 0 .552-.085 1.066-.255 1.54-.17.475-.415.893-.733 1.255l.945.86-.776.808zm8.026-1.753a2.3 2.3 0 0 0 .34-.712c.085-.284.128-.627.128-1.031 0-.333-.04-.655-.117-.967a2.422 2.422 0 0 0-.35-.829 1.741 1.741 0 0 0-.638-.584c-.262-.149-.581-.223-.957-.223-.375 0-.694.074-.956.223a1.742 1.742 0 0 0-.638.584 2.58 2.58 0 0 0-.36.829 4.346 4.346 0 0 0 0 1.902c.077.297.198.567.36.808.163.24.376.435.638.584.262.142.58.212.956.212a3.1 3.1 0 0 0 .404-.02.897.897 0 0 0 .266-.086l-.712-.648.776-.829zm.245 1.753c-.503.29-1.116.436-1.839.436-.58 0-1.105-.1-1.572-.298a3.43 3.43 0 0 1-1.17-.84 3.703 3.703 0 0 1-.732-1.243 4.629 4.629 0 0 1-.255-1.551c0-.567.085-1.091.255-1.573a3.78 3.78 0 0 1 .733-1.275 3.364 3.364 0 0 1 1.169-.85A3.87 3.87 0 0 1 24.27 12c.588 0 1.112.103 1.573.308.46.206.85.489 1.169.85s.563.786.733 1.275c.17.482.255 1.006.255 1.573 0 .552-.085 1.066-.255 1.54s-.414.893-.733 1.255l.946.86-.776.808z" fill="#fff"/></svg>