<svg fill="none" height="32" width="32" xmlns="http://www.w3.org/2000/svg"><circle cx="16" cy="16" fill="#dc7e00" r="16"/><path d="M8.295 17.29H6.667c-.007.472.079.879.257 1.221s.418.625.718.846a3.07 3.07 0 0 0 1.05.482c.4.108.81.161 1.231.161.521 0 .978-.06 1.37-.182a2.9 2.9 0 0 0 .997-.503 2.14 2.14 0 0 0 .61-.782c.136-.3.204-.625.204-.975 0-.428-.093-.778-.279-1.05-.178-.278-.392-.5-.642-.663s-.503-.282-.76-.354a6.069 6.069 0 0 0-.59-.16 166.19 166.19 0 0 1-1.167-.3 4.57 4.57 0 0 1-.696-.236c-.164-.078-.275-.164-.332-.257a.688.688 0 0 1-.086-.364c0-.164.036-.3.107-.407a.956.956 0 0 1 .268-.268 1.17 1.17 0 0 1 .375-.15c.136-.028.271-.042.407-.042.207 0 .396.017.567.053.179.036.336.097.472.182a.904.904 0 0 1 .321.354c.086.15.136.339.15.567h1.628c0-.442-.086-.817-.257-1.124a2.133 2.133 0 0 0-.675-.771 2.795 2.795 0 0 0-.985-.429A4.623 4.623 0 0 0 9.784 12c-.343 0-.686.046-1.028.14-.343.092-.65.235-.921.428s-.493.435-.664.728c-.164.285-.247.625-.247 1.017 0 .35.065.65.193.9.136.243.31.446.525.61s.457.3.728.407c.272.1.55.186.836.257.278.079.553.15.824.215.272.064.514.139.728.224.215.086.386.193.515.322a.662.662 0 0 1 .203.503.76.76 0 0 1-.15.482c-.1.121-.225.218-.375.29s-.31.12-.482.149a3.901 3.901 0 0 1-.482.032c-.221 0-.435-.025-.642-.075a1.82 1.82 0 0 1-.546-.246 1.292 1.292 0 0 1-.365-.44 1.403 1.403 0 0 1-.139-.652zm5.809-5.108v7.647h5.409v-1.414h-3.727v-6.233zm8.921 7.647 2.538-7.647h-1.735l-1.724 5.376h-.021l-1.703-5.376h-1.724l2.473 7.647z" fill="#fff"/></svg>