<svg fill="none" height="36" width="36" xmlns="http://www.w3.org/2000/svg" xmlns:xlink="http://www.w3.org/1999/xlink"><linearGradient id="a"><stop offset="0" stop-color="#00ffa3"/><stop offset="1" stop-color="#dc1fff"/></linearGradient><linearGradient id="c" gradientUnits="userSpaceOnUse" x1="26.148" x2="15.101" xlink:href="#a" y1="8.116" y2="29.276"/><linearGradient id="d" gradientUnits="userSpaceOnUse" x1="21.318" x2="10.271" xlink:href="#a" y1="5.595" y2="26.754"/><linearGradient id="e" gradientUnits="userSpaceOnUse" x1="23.718" x2="12.671" xlink:href="#a" y1="6.847" y2="28.007"/><clipPath id="b"><path d="M8 10h20v15.675H8z"/></clipPath><path clip-rule="evenodd" d="M0 18C0 8.059 8.059 0 18 0s18 8.059 18 18-8.059 18-18 18S0 27.941 0 18z" fill="#f5f5f5" fill-rule="evenodd"/><g clip-path="url(#b)"><path d="M11.249 21.964a.654.654 0 0 1 .462-.191h15.962c.292 0 .438.352.231.558l-3.153 3.153a.654.654 0 0 1-.462.191H8.327a.327.327 0 0 1-.231-.558z" fill="url(#c)"/><path d="M11.249 10.191A.672.672 0 0 1 11.71 10h15.962c.292 0 .438.352.231.558l-3.153 3.153a.654.654 0 0 1-.462.191H8.327a.327.327 0 0 1-.232-.558z" fill="url(#d)"/><path d="M24.751 16.04a.654.654 0 0 0-.462-.191H8.327a.327.327 0 0 0-.231.558l3.153 3.153c.12.12.286.191.462.191h15.962a.327.327 0 0 0 .232-.558z" fill="url(#e)"/></g></svg>