<svg fill="none" height="32" width="32" xmlns="http://www.w3.org/2000/svg"><circle cx="16" cy="16" fill="#273f33" r="16"/><path d="M6.962 17.29H5.334c-.007.472.079.879.257 1.221.179.343.418.625.718.846a3.07 3.07 0 0 0 1.05.482c.4.108.81.161 1.231.161.521 0 .978-.06 1.37-.182a2.9 2.9 0 0 0 .997-.503 2.14 2.14 0 0 0 .61-.782c.136-.3.204-.625.204-.975 0-.428-.093-.778-.279-1.05-.178-.278-.392-.5-.642-.663s-.504-.282-.76-.354a6.067 6.067 0 0 0-.59-.16l-1.167-.3a4.57 4.57 0 0 1-.696-.236c-.164-.078-.275-.164-.332-.257a.688.688 0 0 1-.086-.364c0-.164.036-.3.107-.407a.956.956 0 0 1 .268-.268 1.17 1.17 0 0 1 .375-.15c.136-.028.271-.042.407-.042.207 0 .396.017.568.053.178.036.335.097.47.182a.904.904 0 0 1 .322.354c.086.15.136.339.15.567h1.628c0-.442-.086-.817-.257-1.124a2.133 2.133 0 0 0-.675-.771 2.795 2.795 0 0 0-.985-.429A4.623 4.623 0 0 0 8.45 12c-.343 0-.686.046-1.028.14s-.65.235-.921.428-.493.435-.664.728c-.164.285-.247.625-.247 1.017 0 .35.065.65.193.9.136.243.31.446.525.61s.457.3.728.407c.272.1.55.186.836.257.278.079.553.15.824.215.271.064.514.139.728.224.215.086.386.193.514.322a.662.662 0 0 1 .204.503c0 .193-.05.353-.15.482-.1.121-.225.218-.375.29s-.31.12-.482.149a3.9 3.9 0 0 1-.482.032c-.221 0-.435-.025-.642-.075a1.82 1.82 0 0 1-.546-.246 1.292 1.292 0 0 1-.365-.44 1.403 1.403 0 0 1-.139-.652zm7.491-1.51v-2.29h1.306c.193 0 .379.014.557.042.179.029.336.086.471.172a.83.83 0 0 1 .322.343c.085.15.128.346.128.589 0 .242-.043.439-.128.589a.907.907 0 0 1-.322.353 1.36 1.36 0 0 1-.47.16 3.517 3.517 0 0 1-.558.044zm-1.682-3.598v7.647h1.682v-2.742h1.767c.478 0 .885-.068 1.22-.203a2.29 2.29 0 0 0 .814-.557 2.03 2.03 0 0 0 .461-.782 2.86 2.86 0 0 0 0-1.82 2.026 2.026 0 0 0-.46-.783 2.179 2.179 0 0 0-.814-.546c-.336-.142-.743-.214-1.221-.214zm9.125 4.669v2.978h1.681v-2.935l2.838-4.712h-1.874l-1.778 3.02-1.788-3.02H19.09z" fill="#fff"/></svg>