<svg fill="none" height="48" width="48" xmlns="http://www.w3.org/2000/svg"><clipPath id="a"><path d="M0 0h48v48H0z"/></clipPath><clipPath id="b"><path d="M0 0h48v48H0z"/></clipPath><g clip-path="url(#a)"><g clip-path="url(#b)"><path d="M24 48c13.255 0 24-10.745 24-24S37.255 0 24 0 0 10.745 0 24s10.745 24 24 24z" fill="#f1f3f4"/><path clip-rule="evenodd" d="M32.404 20.926v.001a10.663 10.663 0 0 1 2.332 6.672c0 2.56-.899 4.91-2.398 6.753l-.13.158-.034-.201a9.425 9.425 0 0 0-.103-.52c-.75-3.297-3.195-6.124-7.22-8.413-2.716-1.542-4.272-3.398-4.68-5.507-.264-1.364-.068-2.734.31-3.907.38-1.173.943-2.156 1.422-2.747L23.47 11.3a.687.687 0 0 1 1.063 0zm2.476-1.912v-.001L24.388 6.183a.501.501 0 0 0-.776 0L13.12 19.014l-.034.043A13.904 13.904 0 0 0 10 27.811c0 7.72 6.268 13.977 14 13.977s14-6.258 14-13.977c0-3.314-1.155-6.36-3.086-8.755zm-19.25 1.87.94-1.148.028.212c.022.168.05.337.082.506.607 3.186 2.776 5.843 6.403 7.9 3.152 1.794 4.988 3.857 5.516 6.12.221.944.26 1.873.165 2.686l-.006.05-.046.022A10.709 10.709 0 0 1 24 38.317c-5.93 0-10.736-4.798-10.736-10.718 0-2.542.886-4.877 2.367-6.715z" fill="#4ca2ff" fill-rule="evenodd"/></g></g></svg>