<svg height="32" width="32" xmlns="http://www.w3.org/2000/svg"><path d="M32 15.99c0 8.837-7.164 16-16 16s-16-7.163-16-16c0-8.835 7.164-16 16-16s16 7.165 16 16z" fill="#ffccef"/><path d="m15.97 3.684 2.58.691-1.254 4.677 4.677 1.254-.69 2.579-5.438-1.458-1.828 1.056a1.33 1.33 0 0 0-.487 1.82 1.33 1.33 0 0 0 1.82.486 4.003 4.003 0 0 1 4.182 6.821l-.181.112-2.058 1.187-1.415 5.282-2.579-.69 1.21-4.525-4.52-1.21.69-2.58 5.276 1.412 2.06-1.188a1.332 1.332 0 1 0-1.33-2.308 4 4 0 0 1-5.467-1.465 4 4 0 0 1 1.283-5.355l.181-.111 1.834-1.06z" fill="#ff00af"/></svg>