<svg fill="none" height="32" width="32" xmlns="http://www.w3.org/2000/svg"><circle cx="16" cy="16" fill="#96151d" r="16"/><path d="m9.033 19.823 2.536-7.641H9.836l-1.723 5.372H8.09l-1.7-5.372H4.667l2.472 7.64zm3.188-7.641v7.64h1.573v-5.114h.021l3.179 5.115h1.68v-7.641H17.1v5.126h-.022l-3.189-5.126zm12.962 5.608c.142-.193.257-.432.342-.717s.129-.632.129-1.039c0-.335-.04-.66-.118-.973a2.438 2.438 0 0 0-.353-.835 1.755 1.755 0 0 0-.642-.589c-.264-.15-.585-.224-.963-.224-.379 0-.7.075-.964.224a1.756 1.756 0 0 0-.642.589 2.61 2.61 0 0 0-.364.835 4.377 4.377 0 0 0 0 1.915c.079.3.2.57.364.814.164.242.378.438.642.588.264.143.585.214.963.214.179 0 .314-.007.407-.021a.902.902 0 0 0 .268-.086l-.717-.653.78-.834zm.246 1.765c-.507.293-1.124.439-1.851.439-.586 0-1.113-.1-1.584-.3a3.454 3.454 0 0 1-1.177-.845 3.727 3.727 0 0 1-.739-1.252 4.662 4.662 0 0 1-.257-1.563c0-.57.086-1.098.257-1.583.171-.493.417-.92.739-1.285.32-.363.713-.649 1.177-.856a3.89 3.89 0 0 1 1.584-.31c.592 0 1.12.103 1.583.31.464.207.856.493 1.177.856.321.364.568.792.739 1.285a4.73 4.73 0 0 1 .257 1.583c0 .557-.086 1.074-.257 1.552s-.418.9-.739 1.263l.953.867-.781.813z" fill="#fff"/></svg>