<svg height="24" width="24" xmlns="http://www.w3.org/2000/svg"><g fill="#ff00b0"><path d="m12 2c5.514 0 10 4.486 10 10s-4.486 10-10 10-10-4.486-10-10 4.486-10 10-10zm0-2c-6.627 0-12 5.373-12 12s5.373 12 12 12 12-5.373 12-12-5.373-12-12-12z"/><path d="m15.322 13.781c-.853 0-1.627.312-2.203.819l-2.219-1.268a3.478 3.478 0 0 0 0-2.294l2.223-1.272a3.32 3.32 0 0 0 2.202.822c1.78 0 3.224-1.365 3.224-3.051 0-1.684-1.444-3.05-3.224-3.05-1.782 0-3.223 1.366-3.223 3.05 0 .281.041.556.113.811l-2.219 1.274a3.999 3.999 0 0 0 -2.789-1.116c-2.144 0-3.885 1.648-3.885 3.677s1.741 3.674 3.885 3.674c1.091 0 2.08-.428 2.789-1.113l2.219 1.271a3.014 3.014 0 0 0 -.113.811c0 1.685 1.441 3.052 3.223 3.052 1.78 0 3.224-1.367 3.224-3.052 0-1.684-1.447-3.045-3.227-3.045zm-9.381-1.596c0 .303-.257.546-.581.546-.319 0-.576-.243-.576-.546 0-1.264 1.088-2.295 2.425-2.295.321 0 .581.243.581.546s-.26.547-.581.547c-.702.005-1.268.543-1.268 1.202z"/></g></svg>