<svg xmlns="http://www.w3.org/2000/svg" width="512" height="512"><defs><linearGradient id="a" x1="256" y1="496" x2="256" y2="16" gradientUnits="userSpaceOnUse"><stop offset="0" stop-color="rgba(255,0,076,0.5)"/><stop offset=".5" stop-color="rgba(255,0,176,1)"/><stop offset="1" stop-color="rgba(155,0,176,0.5)"/></linearGradient></defs><path d="M456.017 232a32.062 32.062 0 0 1-30.844-23.4 177.462 177.462 0 0 0-62.1-92.15 175.5 175.5 0 0 0-214.143 0 175.288 175.288 0 0 0-32.164 32.325l66.2-19.471a32 32 0 1 1 18.058 61.4l-135.994 40a32 32 0 0 1-40.979-28.925l-8-144a32 32 0 1 1 63.9-3.548l2.045 36.805A239.375 239.375 0 0 1 402.191 65.8a241.869 241.869 0 0 1 84.629 125.6 32 32 0 0 1-30.8 40.6zM48 40c-.3 0-.593.009-.893.025a16.018 16.018 0 0 0-15.082 16.863l8 144a16 16 0 0 0 20.487 14.462l136-40a16 16 0 0 0-9.029-30.7l-87.453 25.722a8 8 0 0 1-9.151-11.734 192.149 192.149 0 0 1 48.268-54.853l4.89 6.331-4.89-6.331a191.495 191.495 0 0 1 233.7 0A193.565 193.565 0 0 1 440.585 204.3a16 16 0 1 0 30.824-8.6 225.775 225.775 0 0 0-79-117.243 223.495 223.495 0 0 0-272.824 0 224.065 224.065 0 0 0-38.227 37.717 8 8 0 0 1-14.245-4.541l-3.14-56.523A16.025 16.025 0 0 0 48 40zm208 456a237.09 237.09 0 0 1-146.193-49.793A241.849 241.849 0 0 1 25.18 320.61a32 32 0 0 1 61.647-17.193 177.444 177.444 0 0 0 62.1 92.143 175.228 175.228 0 0 0 246.308-32.324l-66.2 19.471a32 32 0 1 1-18.057-61.393l135.993-40a32 32 0 0 1 40.979 28.922l8 143.989a32.034 32.034 0 0 1-30.175 33.722c-.6.034-1.2.051-1.8.051a32 32 0 0 1-31.928-30.225l-2.045-36.8A238.468 238.468 0 0 1 256 496zM55.992 296.015a16 16 0 0 0-15.4 20.3 225.749 225.749 0 0 0 79 117.235 223.511 223.511 0 0 0 272.825 0 224.083 224.083 0 0 0 38.227-37.714 8 8 0 0 1 14.245 4.54l3.14 56.518a16 16 0 0 0 31.95-1.776l-8-143.988a16 16 0 0 0-20.488-14.461l-135.995 40a16 16 0 1 0 9.028 30.7l87.449-25.719a8 8 0 0 1 9.152 11.734 192.125 192.125 0 0 1-48.268 54.848 191.5 191.5 0 0 1-233.7 0 193.551 193.551 0 0 1-67.735-100.5 16.034 16.034 0 0 0-15.43-11.717z" style="fill:url(#a)"/></svg>