<svg fill="none" height="32" width="32" xmlns="http://www.w3.org/2000/svg"><clipPath id="a"><path d="M0 0h32v32H0z"/></clipPath><g clip-path="url(#a)"><path clip-rule="evenodd" d="M16 0C7.163 0 0 7.163 0 16s7.163 16 16 16c8.838 0 16-7.163 16-16S24.838 0 16 0z" fill="#e82127" fill-rule="evenodd"/></g><path d="M10.27 12.152H5.332v1.277h1.689v6.452H8.58v-6.452h1.688zm1.931 5.315h-1.559v.314c0 .714.188 1.263.564 1.645.382.383 1.014.574 1.894.574.844 0 1.501-.184 1.97-.552.477-.375.715-.97.715-1.786a3 3 0 0 0-.065-.65 1.413 1.413 0 0 0-.238-.53 1.759 1.759 0 0 0-.444-.455 3.503 3.503 0 0 0-.726-.411l-1.201-.52c-.332-.137-.549-.285-.65-.444a1.145 1.145 0 0 1-.151-.606c0-.116.01-.227.032-.336a.738.738 0 0 1 .14-.281.75.75 0 0 1 .282-.206c.116-.05.26-.076.433-.076.304 0 .52.101.65.304.13.194.195.476.195.844h1.494v-.216c0-.369-.062-.683-.184-.942a1.602 1.602 0 0 0-.498-.65 1.859 1.859 0 0 0-.758-.368 3.587 3.587 0 0 0-.953-.119c-.743 0-1.328.188-1.753.563s-.64.945-.64 1.71c0 .318.04.6.12.845.08.238.202.45.368.638.173.18.386.34.639.477.252.137.552.263.898.379.26.086.477.173.65.26.18.079.324.169.433.27a.828.828 0 0 1 .227.346c.05.123.076.271.076.444 0 .325-.098.567-.292.726a.989.989 0 0 1-.64.227c-.201 0-.37-.029-.508-.087a.808.808 0 0 1-.314-.238.858.858 0 0 1-.162-.368 2.664 2.664 0 0 1-.044-.498zm4.359 2.413h4.319v-1.276h-2.76v-6.452h-1.56zm8.236-2.911-.747-3.475h-.021l-.747 3.475zm.206-4.817 2.046 7.729h-1.624l-.357-1.635H23.01l-.357 1.635h-1.624l2.046-7.73z" fill="#f5f5f5"/></svg>