<svg fill="none" height="32" width="32" xmlns="http://www.w3.org/2000/svg"><circle cx="16" cy="16" fill="#4a93cd" r="16"/><path d="M6.442 12H4.854v5.495c0 .53.07.96.21 1.291s.327.589.562.773c.235.176.504.294.805.353.302.059.615.088.938.088s.637-.033.938-.1.57-.194.806-.385c.235-.192.423-.45.563-.773.14-.331.21-.747.21-1.247V12h-1.59v5.495c0 .199-.014.383-.044.552a1.15 1.15 0 0 1-.143.43.792.792 0 0 1-.276.287.942.942 0 0 1-.464.1.982.982 0 0 1-.463-.1.89.89 0 0 1-.287-.287 1.48 1.48 0 0 1-.143-.43 4.28 4.28 0 0 1-.034-.552zm4.448 0v7.879h1.59v-3.333h.849c.331 0 .566.088.706.265.14.177.217.42.232.728l.044 1.512c.007.155.022.305.044.452.022.14.074.265.155.376h1.721v-.067c-.147-.08-.243-.231-.287-.452-.03-.22-.051-.54-.066-.96a60.955 60.955 0 0 0-.022-.574 8.31 8.31 0 0 0-.033-.485c-.044-.442-.158-.762-.342-.96s-.475-.328-.872-.386v-.023c.449-.095.78-.309.993-.64.213-.338.32-.772.32-1.302 0-.684-.184-1.191-.552-1.522-.367-.339-.882-.508-1.544-.508zm1.59 3.443V13.17h.75c.735 0 1.103.364 1.103 1.092 0 .427-.103.732-.309.916-.206.177-.5.265-.883.265zM21.44 12h-5.032v1.302h1.722v6.577h1.589v-6.577h1.721zm.69 0v7.879h1.589V16.38h1.853v3.498h1.59V12h-1.59v3.012h-1.854V12z" fill="#fff"/></svg>